<mxfile host="app.diagrams.net" agent="Mozilla/5.0 (Windows NT 10.0; Win64; x64) AppleWebKit/537.36 (KHTML, like Gecko) Chrome/140.0.0.0 Safari/537.36" version="28.2.5">
  <diagram name="Página-1" id="KwYDyNfv9ctItFkarnwe">
    <mxGraphModel dx="1042" dy="562" grid="1" gridSize="10" guides="1" tooltips="1" connect="1" arrows="1" fold="1" page="1" pageScale="1" pageWidth="827" pageHeight="1169" math="0" shadow="0">
      <root>
        <mxCell id="0" />
        <mxCell id="1" parent="0" />
        <mxCell id="XDPA2bpFFyo5-ihJ0qHG-3" style="edgeStyle=orthogonalEdgeStyle;rounded=0;orthogonalLoop=1;jettySize=auto;html=1;" parent="1" source="XDPA2bpFFyo5-ihJ0qHG-1" target="XDPA2bpFFyo5-ihJ0qHG-2" edge="1">
          <mxGeometry relative="1" as="geometry" />
        </mxCell>
        <object placeholders="1" c4Name="Colaborador" c4Type="Nome" c4Description="Usuário utiliza (CRM) para criação de gráficos e dashbords" label="&lt;font style=&quot;font-size: 16px&quot;&gt;&lt;b&gt;%c4Name%&lt;/b&gt;&lt;/font&gt;&lt;div&gt;[%c4Type%]&lt;/div&gt;&lt;br&gt;&lt;div&gt;&lt;font style=&quot;font-size: 11px&quot;&gt;&lt;font&gt;%c4Description%&lt;/font&gt;&lt;/font&gt;&lt;/div&gt;" id="XDPA2bpFFyo5-ihJ0qHG-1">
          <mxCell style="html=1;fontSize=11;dashed=0;whiteSpace=wrap;fillColor=light-dark(#204a5a, #718769);strokeColor=#3A5431;shape=mxgraph.c4.person2;align=center;metaEdit=1;points=[[0.5,0,0],[1,0.5,0],[1,0.75,0],[0.75,1,0],[0.5,1,0],[0.25,1,0],[0,0.75,0],[0,0.5,0]];resizable=0;fontColor=#FFFFFF;shadow=0;" parent="1" vertex="1">
            <mxGeometry x="140" y="10" width="200" height="180" as="geometry" />
          </mxCell>
        </object>
        <mxCell id="XDPA2bpFFyo5-ihJ0qHG-15" value="" style="edgeStyle=orthogonalEdgeStyle;rounded=0;orthogonalLoop=1;jettySize=auto;html=1;" parent="1" source="XDPA2bpFFyo5-ihJ0qHG-2" target="XDPA2bpFFyo5-ihJ0qHG-14" edge="1">
          <mxGeometry relative="1" as="geometry" />
        </mxCell>
        <object placeholders="1" c4Name="Exportar Dados" c4Type="InsightSales" c4Description="Planilhas que já contêm dados de clientes/vendas." label="&lt;font style=&quot;font-size: 16px&quot;&gt;&lt;b&gt;%c4Name%&lt;/b&gt;&lt;/font&gt;&lt;div&gt;[%c4Type%]&lt;/div&gt;&lt;br&gt;&lt;div&gt;&lt;font style=&quot;font-size: 11px&quot;&gt;&lt;font&gt;%c4Description%&lt;/font&gt;&lt;/font&gt;&lt;/div&gt;" id="XDPA2bpFFyo5-ihJ0qHG-2">
          <mxCell style="rounded=1;whiteSpace=wrap;html=1;labelBackgroundColor=none;fillColor=light-dark(#b0bbc1, #1a1a1a);fontColor=#000000;align=center;arcSize=10;strokeColor=light-dark(#858585, #959595);metaEdit=1;resizable=0;points=[[0.25,0,0],[0.5,0,0],[0.75,0,0],[1,0.25,0],[1,0.5,0],[1,0.75,0],[0.75,1,0],[0.5,1,0],[0.25,1,0],[0,0.75,0],[0,0.5,0],[0,0.25,0]];glass=1;" parent="1" vertex="1">
            <mxGeometry x="420" y="40" width="240" height="120" as="geometry" />
          </mxCell>
        </object>
        <mxCell id="XDPA2bpFFyo5-ihJ0qHG-23" value="" style="edgeStyle=orthogonalEdgeStyle;rounded=0;orthogonalLoop=1;jettySize=auto;html=1;" parent="1" source="XDPA2bpFFyo5-ihJ0qHG-14" target="XDPA2bpFFyo5-ihJ0qHG-22" edge="1">
          <mxGeometry relative="1" as="geometry" />
        </mxCell>
        <object placeholders="1" c4Name="Gerar Gráficos" c4Type="InsightSales" c4Description="Sistema gera o gráfico e é enviado para análise e correções" label="&lt;font style=&quot;font-size: 16px&quot;&gt;&lt;b&gt;%c4Name%&lt;/b&gt;&lt;/font&gt;&lt;div&gt;[%c4Type%]&lt;/div&gt;&lt;br&gt;&lt;div&gt;&lt;font style=&quot;font-size: 11px&quot;&gt;&lt;font&gt;%c4Description%&lt;/font&gt;&lt;/font&gt;&lt;/div&gt;" id="XDPA2bpFFyo5-ihJ0qHG-14">
          <mxCell style="rounded=1;whiteSpace=wrap;html=1;labelBackgroundColor=none;fillColor=light-dark(#b0bbc1, #1a1a1a);fontColor=#000000;align=center;arcSize=10;strokeColor=light-dark(#858585, #959595);metaEdit=1;resizable=0;points=[[0.25,0,0],[0.5,0,0],[0.75,0,0],[1,0.25,0],[1,0.5,0],[1,0.75,0],[0.75,1,0],[0.5,1,0],[0.25,1,0],[0,0.75,0],[0,0.5,0],[0,0.25,0]];gradientColor=none;glass=1;shadow=0;" parent="1" vertex="1">
            <mxGeometry x="420" y="190" width="240" height="120" as="geometry" />
          </mxCell>
        </object>
        <mxCell id="XDPA2bpFFyo5-ihJ0qHG-25" value="" style="edgeStyle=orthogonalEdgeStyle;rounded=0;orthogonalLoop=1;jettySize=auto;html=1;" parent="1" source="XDPA2bpFFyo5-ihJ0qHG-22" target="XDPA2bpFFyo5-ihJ0qHG-24" edge="1">
          <mxGeometry relative="1" as="geometry" />
        </mxCell>
        <object placeholders="1" c4Name="Visualização" c4Type="InsightSales" c4Description="O usuário final recebe um rascunho do gráfico e aprova ou solicita a modificação de algo que deseja alterar." label="&lt;font style=&quot;font-size: 16px&quot;&gt;&lt;b&gt;%c4Name%&lt;/b&gt;&lt;/font&gt;&lt;div&gt;[%c4Type%]&lt;/div&gt;&lt;br&gt;&lt;div&gt;&lt;font style=&quot;font-size: 11px&quot;&gt;&lt;font&gt;%c4Description%&lt;/font&gt;&lt;/font&gt;&lt;/div&gt;" id="XDPA2bpFFyo5-ihJ0qHG-22">
          <mxCell style="rounded=1;whiteSpace=wrap;html=1;labelBackgroundColor=none;fillColor=light-dark(#b0bbc1, #1a1a1a);fontColor=#000000;align=center;arcSize=10;strokeColor=light-dark(#858585, #959595);metaEdit=1;resizable=0;points=[[0.25,0,0],[0.5,0,0],[0.75,0,0],[1,0.25,0],[1,0.5,0],[1,0.75,0],[0.75,1,0],[0.5,1,0],[0.25,1,0],[0,0.75,0],[0,0.5,0],[0,0.25,0]];gradientColor=none;glass=1;shadow=0;" parent="1" vertex="1">
            <mxGeometry x="420" y="350" width="240" height="120" as="geometry" />
          </mxCell>
        </object>
        <mxCell id="XDPA2bpFFyo5-ihJ0qHG-27" value="" style="edgeStyle=orthogonalEdgeStyle;rounded=0;orthogonalLoop=1;jettySize=auto;html=1;" parent="1" source="XDPA2bpFFyo5-ihJ0qHG-24" target="XDPA2bpFFyo5-ihJ0qHG-26" edge="1">
          <mxGeometry relative="1" as="geometry" />
        </mxCell>
        <object placeholders="1" c4Name="Envio do Gráfico " c4Type="InsightSales" c4Description="Depois de ser aprovado, a equipe de análise envia o gráfico para o time." label="&lt;font style=&quot;font-size: 16px&quot;&gt;&lt;b&gt;%c4Name%&lt;/b&gt;&lt;/font&gt;&lt;div&gt;[%c4Type%]&lt;/div&gt;&lt;br&gt;&lt;div&gt;&lt;font style=&quot;font-size: 11px&quot;&gt;&lt;font&gt;%c4Description%&lt;/font&gt;&lt;/font&gt;&lt;/div&gt;" id="XDPA2bpFFyo5-ihJ0qHG-24">
          <mxCell style="rounded=1;whiteSpace=wrap;html=1;labelBackgroundColor=none;fillColor=light-dark(#b0bbc1, #1a1a1a);fontColor=#000000;align=center;arcSize=10;strokeColor=light-dark(#858585, #959595);metaEdit=1;resizable=0;points=[[0.25,0,0],[0.5,0,0],[0.75,0,0],[1,0.25,0],[1,0.5,0],[1,0.75,0],[0.75,1,0],[0.5,1,0],[0.25,1,0],[0,0.75,0],[0,0.5,0],[0,0.25,0]];gradientColor=none;glass=1;shadow=0;" parent="1" vertex="1">
            <mxGeometry x="420" y="510" width="240" height="120" as="geometry" />
          </mxCell>
        </object>
        <mxCell id="XDPA2bpFFyo5-ihJ0qHG-29" value="" style="edgeStyle=orthogonalEdgeStyle;rounded=0;orthogonalLoop=1;jettySize=auto;html=1;" parent="1" source="XDPA2bpFFyo5-ihJ0qHG-26" target="XDPA2bpFFyo5-ihJ0qHG-28" edge="1">
          <mxGeometry relative="1" as="geometry" />
        </mxCell>
        <object placeholders="1" c4Name="Recebimento " c4Type="InsightSales" c4Description="A equipe recebe o gráfico e cria as suas estratégias e objetivos de acordo com o gráfico para ajudar nas tomadas de decisão." label="&lt;font style=&quot;font-size: 16px&quot;&gt;&lt;b&gt;%c4Name%&lt;/b&gt;&lt;/font&gt;&lt;div&gt;[%c4Type%]&lt;/div&gt;&lt;br&gt;&lt;div&gt;&lt;font style=&quot;font-size: 11px&quot;&gt;&lt;font&gt;%c4Description%&lt;/font&gt;&lt;/font&gt;&lt;/div&gt;" id="XDPA2bpFFyo5-ihJ0qHG-26">
          <mxCell style="rounded=1;whiteSpace=wrap;html=1;labelBackgroundColor=none;fillColor=light-dark(#b0bbc1, #1a1a1a);fontColor=#000000;align=center;arcSize=10;strokeColor=light-dark(#858585, #959595);metaEdit=1;resizable=0;points=[[0.25,0,0],[0.5,0,0],[0.75,0,0],[1,0.25,0],[1,0.5,0],[1,0.75,0],[0.75,1,0],[0.5,1,0],[0.25,1,0],[0,0.75,0],[0,0.5,0],[0,0.25,0]];gradientColor=none;glass=1;shadow=0;" parent="1" vertex="1">
            <mxGeometry x="420" y="680" width="240" height="120" as="geometry" />
          </mxCell>
        </object>
        <object placeholders="1" c4Name="FeedBack" c4Type="InsightSales" c4Description="O time também envia sugestões de melhorias ao usuário final, garantindo que os próximos gráficos ou dashboards sejam ainda mais eficientes e assertivos." label="&lt;font style=&quot;font-size: 16px&quot;&gt;&lt;b&gt;%c4Name%&lt;/b&gt;&lt;/font&gt;&lt;div&gt;[%c4Type%]&lt;/div&gt;&lt;br&gt;&lt;div&gt;&lt;font style=&quot;font-size: 11px&quot;&gt;&lt;font&gt;%c4Description%&lt;/font&gt;&lt;/font&gt;&lt;/div&gt;" id="XDPA2bpFFyo5-ihJ0qHG-28">
          <mxCell style="rounded=1;whiteSpace=wrap;html=1;labelBackgroundColor=none;fillColor=light-dark(#b0bbc1, #1a1a1a);fontColor=#000000;align=center;arcSize=10;strokeColor=light-dark(#858585, #959595);metaEdit=1;resizable=0;points=[[0.25,0,0],[0.5,0,0],[0.75,0,0],[1,0.25,0],[1,0.5,0],[1,0.75,0],[0.75,1,0],[0.5,1,0],[0.25,1,0],[0,0.75,0],[0,0.5,0],[0,0.25,0]];gradientColor=none;glass=1;shadow=0;" parent="1" vertex="1">
            <mxGeometry x="140" y="680" width="240" height="120" as="geometry" />
          </mxCell>
        </object>
        <mxCell id="XDPA2bpFFyo5-ihJ0qHG-30" style="edgeStyle=orthogonalEdgeStyle;rounded=0;orthogonalLoop=1;jettySize=auto;html=1;entryX=0.5;entryY=1;entryDx=0;entryDy=0;entryPerimeter=0;" parent="1" source="XDPA2bpFFyo5-ihJ0qHG-28" target="XDPA2bpFFyo5-ihJ0qHG-1" edge="1">
          <mxGeometry relative="1" as="geometry">
            <Array as="points">
              <mxPoint x="240" y="560" />
              <mxPoint x="240" y="560" />
            </Array>
          </mxGeometry>
        </mxCell>
      </root>
    </mxGraphModel>
  </diagram>
</mxfile>
